<?xml version="1.0" standalone="no"?>
<!DOCTYPE svg PUBLIC "-//W3C//DTD SVG 1.1//EN" "http://www.w3.org/Graphics/SVG/1.1/DTD/svg11.dtd" >
<svg xmlns="http://www.w3.org/2000/svg" xmlns:xlink="http://www.w3.org/1999/xlink" version="1.1">
<metadata>
Created by FontForge 20170910 at Sun Feb  9 02:06:32 2003
 By Jimmy Wärting
(c) Jakob Fischer at www.pizzadude.dk - DO NOT DISTRIBUTE WITHOUT AUTHOR'S PERMISSION!
</metadata>
<defs>
<font id="Bringthanoize" horiz-adv-x="370" >
  <font-face 
    font-family="Bring tha noize"
    font-weight="400"
    font-stretch="normal"
    units-per-em="1000"
    panose-1="0 0 4 0 0 0 0 0 0 0"
    ascent="800"
    descent="-200"
    x-height="598"
    cap-height="737"
    bbox="-149 -307.352 974.8 824"
    underline-thickness="20"
    underline-position="-143"
    unicode-range="U+0020-007D"
  />
<missing-glyph horiz-adv-x="500" 
d="M63 0v824h375v-824h-375zM125 63h250v699h-250v-699z" />
    <glyph glyph-name=".notdef" horiz-adv-x="500" 
d="M63 0v824h375v-824h-375zM125 63h250v699h-250v-699z" />
    <glyph glyph-name=".null" horiz-adv-x="0" 
 />
    <glyph glyph-name="nonmarkingreturn" 
 />
    <glyph glyph-name="space" unicode=" " 
 />
    <glyph glyph-name="exclam" unicode="!" horiz-adv-x="262" 
d="M278 590q-23 -72 -97 -219q-56 -111 -56 -171q0 -20 4 -39l-36 -18q-23 -11 -38 -11q-40 0 -51 98q-4 31 -4 125q0 53 7 99q8 65 27 193q19 110 80 156q7 5 13 5q36 0 74 -59q58 -90 77 -159zM154 -113q-18 -8 -32 -26q-1 -1 -6 -27q-24 -28 -59 -28q-37 0 -46 40
q-16 70 -6 111q25 18 61 18q31 0 55 -22t23 -53q2 -6 10 -13z" />
    <glyph glyph-name="quotedbl" unicode="&#x22;" horiz-adv-x="463" 
d="M466 694q-13 -69 -23 -112q-18 -74 -35 -104q-9 -4 -21 -4q-18 0 -42 11q-8 14 -8 28q0 10 7 29t7 29q-5 2 -34 6q-24 3 -35 12q-27 20 -27 58q0 41 38 116q5 10 24 25.5t29 14.5q51 -3 94 -22q28 -12 28 -66q0 -10 -2 -21zM186 680q3 -70 -7 -133q-14 -94 -52 -122
q-15 10 -34 10q-9 0 -12 -3q-1 6 2 9q-1 2 -10 2q4 36 17 94q-1 1 -9 3q-3 0 -14 -2q-9 -1 -14 0q-52 10 -52 77q0 41 22 86q12 23 48 77q11 16 24 17q23 1 38 -16q6 -7 24 -39q8 -9 17 -25q-1 -5 0 -10q12 -12 12 -25z" />
    <glyph glyph-name="numbersign" unicode="#" horiz-adv-x="625" 
d="M641 487l-7 7q-8 -10 -26 -12q-28 0 -73 -9q-7 -3 -58 -10q-29 -4 -40 -21q-8 -13 -7 -41q2 -104 2 -51q18 0 53.5 5t53.5 5q50 0 75 -24q-5 -47 -38 -63q-18 -9 -70 -13t-73 -15q-1 -109 12 -236q3 -32 -9 -57q-15 -30 -46 -30q-8 0 -13 4q-3 1 -11 -5v11q1 -1 -13 -1
q-8 100 -17 293q-5 2 -12 2q-17 0 -42 -8q-34 -11 -41 -12q-25 -4 -58 -21q-10 -100 -2 -143q5 -27 5 -47q0 -65 -38 -91l-10 10q-3 -4 -3 -7q-2 2 -25 5q-22 35 -22 113q0 4 2 66q1 37 0 63q-21 1 -58.5 -13t-53.5 -14q-19 0 -31 15q8 51 23 71q6 7 128 57q3 22 8 68
q-22 -7 -87 -43q-56 -31 -83 -31q-14 0 -26 7q-1 8 -1 16q0 65 80 111l136 72q11 43 34 128q20 72 48 103q53 -8 53 -53q0 -25 -18 -71q-19 -49 -20 -70q22 6 68 19q26 3 38 5q28 5 34 12q6 26 28 92q10 30 30 57q9 -1 28 -1q32 -14 32 -40q0 -12 -11 -42.5t-10 -45.5
q23 2 89 13q55 9 89 9q2 -3 -1 -9q33 -2 33 -22q0 -11 -14 -37t-14 -30zM339 423q-64 -12 -139 -41q-7 -48 -7 -85q44 13 142 34q0 64 4 92z" />
    <glyph glyph-name="dollar" unicode="$" horiz-adv-x="532" 
d="M538 296q8 -11 8 -31q0 -111 -86 -170q-12 -5 -34 -17q-28 -20 -69 -31q-3 -1 -34 -6q-17 -3 -18 -8q-6 -30 -15 -72q-23 -30 -62 -27q-7 20 -7 45q0 26 7 56l-108 18q-70 19 -76 57q0 -2 4 21q0 24 8 56q19 21 33 29q13 -12 29 -40q1 -7 6 -20q9 -12 56 -19q31 -5 52 -5
q11 0 21.5 2.5t35.5 8.5q3 -2 8 -7q61 11 88 25q47 23 77 77q-53 57 -159 75q-8 1 -31 9q-19 7 -31 7q-5 0 -10 -1q-5 5 -32 13q-30 9 -39 14q-20 13 -24 38q-2 12 3 34.5t12 31.5q31 41 121 109q16 7 41 28q4 34 10 65q1 6 28 68q10 1 18 1q40 0 40 -37q0 -19 -18 -74
q4 -2 7 -2q7 0 20 14q6 4 14 4q18 0 42.5 -18.5t32.5 -36.5q-8 -19 -26 -48q-5 0 -16 -2t-16 -2q-3 0 -9 4t-9 4q-37 0 -93 -37q-48 -32 -78 -67q49 -14 146 -44q85 -29 132 -92z" />
    <glyph glyph-name="percent" unicode="%" horiz-adv-x="579" 
d="M584 175q0 7 -12 -75q-9 -61 -54 -113q-49 -57 -107 -57q-12 0 -24 3q-10 0 -27 3q-73 20 -73 115q0 19 7.5 57t7.5 58l-68 -145q-7 -23 -22.5 -68.5t-43.5 -45.5q-7 0 -37 17q1 78 60 203q34 67 100 202q4 9 1 16q-26 -14 -81 -34q-19 -4 -40 -4q-147 -1 -147 137
q0 104 65 188q4 3 30 35q32 39 94 39t111.5 -37t56.5 -97q2 -18 1 -53q13 11 65 96q39 64 66 64q12 0 23 -10q7 -5 15 -21q1 -17 -5 -46q-158 -237 -179 -309q19 21 54 51q8 5 21 5q40 0 82 -32q23 -18 42 -65q16 -43 18 -77zM296 558q0 22 -18.5 36t-40.5 14q-41 0 -90 -61
q-43 -53 -43 -92q0 -41 57 -41q51 0 89 26.5t37 58.5q-1 14 2 32q7 28 7 27zM499 136q0 55 -39 91q-7 -8 -17 -26q-7 -13 -15 -14q-2 4 -2 8q0 6 4.5 17.5t4.5 16.5q0 7 -5 10q-52 -62 -57 -132q-6 -74 35 -74q32 0 65 45q26 37 26 58z" />
    <glyph glyph-name="ampersand" unicode="&#x26;" horiz-adv-x="601" 
d="M431 73q-136 100 -210 135q-15 -25 -15 -62q0 -48 25 -96q30 -57 74 -57q42 0 80 35q13 12 46 45zM643 -35q-15 -18 -43 -23q-12 6 -39 29l-46 39q-109 -115 -183 -114q-97 1 -154 90q-50 77 -50 179q0 51 15 90q-64 33 -101 85q-41 58 -41 125q0 78 56 142q77 87 186 87
q69 0 119 -38q74 -56 77 -119q1 -26 -15 -65q-6 -5 -14 -15q-1 -7 -5 -18q-46 -61 -80 -94q-27 -26 -56 -55q1 -1 97 -61q67 -42 109 -75q18 21 27 77l15 93q59 -4 59 -103v-27q0 -6 -1 -15v-9q0 -17 -18 -76q48 -40 49 -42q31 -30 33 -52q1 -10 4 -35zM360 558
q-36 48 -114 47q-43 -1 -84 -29q-37 -26 -60 -66q-25 -43 -25 -66q0 -32 40 -64q32 -21 65 -43q10 12 98 106q60 64 80 115z" />
    <glyph glyph-name="quotesingle" unicode="'" horiz-adv-x="472" 
d="M466 694q-13 -69 -23 -112q-18 -74 -35 -104q-9 -4 -21 -4q-18 0 -42 11q-8 14 -8 28q0 10 7 29t7 29q-5 2 -34 6q-24 3 -35 12q-27 20 -27 58q0 41 38 116q5 10 24 25.5t29 14.5q51 -3 94 -22q28 -12 28 -66q0 -10 -2 -21z" />
    <glyph glyph-name="parenleft" unicode="(" horiz-adv-x="375" 
d="M402 735q-11 -12 -40.5 -22t-43.5 -23q-85 -82 -169 -266q-14 -31 -26 -75q-30 -112 -30 -187q0 -59 19 -97q16 -32 68 -69q44 -31 81 -47q16 -7 58 -22q59 -19 74 -97q-14 -1 -33 -26q-3 -2 -8 -2q-9 0 -31 10q-15 8 -31 15q-78 33 -148 86q-132 101 -140 272
q-4 85 18 180.5t63 170.5q50 91 90 146q78 105 143 121q41 10 71 -30q15 -20 15 -38z" />
    <glyph glyph-name="parenright" unicode=")" horiz-adv-x="398" 
d="M1 735q11 -13 41 -22.5t44 -22.5q81 -79 168 -266q15 -32 26 -75q30 -115 30 -187q0 -59 -19 -97q-17 -33 -75 -74q-38 -27 -74 -42q-19 -8 -57 -22q-60 -19 -75 -97q14 -1 33 -26q3 -2 8 -2q3 0 63 25q78 33 148 86q94 72 114 147q23 86 25 125q9 185 -81 351
q-50 91 -90 146q-78 105 -143 121q-40 10 -70 -30q-16 -20 -16 -38z" />
    <glyph glyph-name="asterisk" unicode="*" horiz-adv-x="274" 
d="M293 465q-10 -4 -26 -23q-20 -3 -41 25q-11 16 -32 48q-24 35 -56 66q-14 -8 -50 -56q-31 -42 -50 -42q-18 0 -33 29q-3 10 -3 21q0 55 74 128q-63 98 -63 125q0 13 6 23q31 3 60 -35q17 -23 51 -71q28 20 95 67q21 -7 35 -28t15 -44l-77 -69q11 -16 51 -68
q24 -31 28 -54q7 -13 16 -42z" />
    <glyph glyph-name="plus" unicode="+" horiz-adv-x="356" 
d="M357 369q-7 0 -34 -23q-62 2 -107 -1q-1 -1 -3 -5q1 -27 13 -105q-24 -16 -40 -16q-29 0 -40 49l-14 74q-11 -1 -35.5 -7t-38.5 -6q-30 0 -48 25q-7 10 -7 32v38q8 2 122 15q9 72 23 134q60 -16 60 -83q0 -14 -3 -42q24 -5 47 -5q8 0 24 1.5t24 1.5q19 0 29 -16
q30 -49 28 -61z" />
    <glyph glyph-name="comma" unicode="," horiz-adv-x="266" 
d="M248 213q-10 -55 -18 -89q-14 -58 -29 -83q-8 -4 -17 -4q-15 0 -33 9q-6 12 -6 23q0 8 5.5 23t5.5 23q-20 1 -56 15q-21 16 -21 46q0 32 30 92q4 7 19.5 20t22.5 13q42 -3 76 -18q15 -7 20 -31q4 -20 1 -39z" />
    <glyph glyph-name="hyphen" unicode="-" horiz-adv-x="318" 
d="M305 350q-9 0 -36 -21q-85 5 -119 4q-13 -1 -42 -5.5t-44 -4.5q-23 0 -35 9q-7 6 -24 31q-2 25 -2 41q0 13 1 21q68 20 121 17q20 -1 41 0q36 2 37 2q58 0 83 -46q6 -10 19 -48z" />
    <glyph glyph-name="hyphen" unicode="&#x2010;" horiz-adv-x="318" 
d="M305 350q-9 0 -36 -21q-85 5 -119 4q-13 -1 -42 -5.5t-44 -4.5q-23 0 -35 9q-7 6 -24 31q-2 25 -2 41q0 13 1 21q68 20 121 17q20 -1 41 0q36 2 37 2q58 0 83 -46q6 -10 19 -48z" />
    <glyph glyph-name="period" unicode="." horiz-adv-x="171" 
d="M25 117q18 -8 32 -26q2 -1 7 -27q23 -28 58 -28q38 0 47 40q15 68 5 111q-25 18 -61 18q-31 0 -54.5 -22t-23.5 -53q-2 -6 -10 -13z" />
    <glyph glyph-name="slash" unicode="/" horiz-adv-x="431" 
d="M440 800q0 -10 21 -36q-1 -26 -161.5 -333t-159.5 -329t-8 -55l-15 -55q-2 -12 -37 -36q-25 -2 -41 -2q-13 0 -21 1q-4 13 -4 26q0 17 8 48.5t9 46.5q3 56 157 364q157 315 204 340q16 9 48 20z" />
    <glyph glyph-name="zero" unicode="0" horiz-adv-x="759" 
d="M764 304q1 -55 -48 -128q-44 -66 -100 -114q-13 -10 -44 -35q-5 -1 -13 -2q-1 -5 -9 -14q-43 -22 -93 -50q-53 -30 -119 -44q-43 -9 -94 -9q-63 0 -115 19q-31 11 -65 38.5t-48 54.5q-39 77 -39 167q0 150 117 338q41 66 116 118q80 56 152 61q68 5 107 -20
q10 -10 31 -26q26 -10 66 -27q11 -6 33 -22q90 -66 130 -165q34 -86 35 -140zM671 313q3 10 3 20q0 46 -33 101q-31 52 -70 82q-66 49 -152 69q-14 3 -32 0q-8 -4 -21 -8q-14 -1 -37 21q-82 -33 -155 -139q-55 -80 -83 -164q-22 -67 -24 -165q0 -12 4 -36q5 -27 11 -33
q49 -50 125 -50q159 0 290 98q146 109 174 204z" />
    <glyph glyph-name="one" unicode="1" horiz-adv-x="251" 
d="M269 -25q-2 -1 -37 -29q-12 -2 -28 4t-20 16q-43 102 -48 343l-5 240l-110 -92q-64 -52 -111 -46q-28 25 -28 62q0 17 6 36q165 82 276 234q26 5 50.5 -20.5t26.5 -52.5q2 -12 2 -25q0 -32 -10 -97.5t-9 -99.5q4 -172 7 -217q9 -146 38 -256z" />
    <glyph glyph-name="two" unicode="2" horiz-adv-x="453" 
d="M447 157q0 -36 -8 -106.5t-8 -106.5q0 -20 2 -34q-5 -29 -31 -35q-12 -3 -18 0q-29 9 -78 33l-76 37l-94 36q-157 62 -157 185q0 36 18 59q12 15 73 61q26 20 124 73q175 96 175 153q0 17 -34 38q-51 31 -133 31q-67 0 -102 -23q-25 -17 -39 -34q4 -14 33 -39
q25 -22 25 -45q0 -3 -8 -18q-6 -4 -15 -4q-27 0 -62.5 28t-42.5 54q-13 48 0 74q52 101 191 101q64 0 127 -24q70 -27 105 -72t35 -90q0 -57 -62 -113q-40 -36 -133 -91q-104 -61 -125 -77q-28 -21 -46 -38q-25 -24 -25 -38q13 -20 30 -28q145 -67 261 -114q13 72 20 159
q1 33 6 120q10 5 19 5q53 0 53 -117z" />
    <glyph glyph-name="three" unicode="3" horiz-adv-x="608" 
d="M564 94q-76 -118 -250 -189q-54 -22 -106 -22q-79 0 -141 65t-62 145q0 36 18 65q6 9 22 9v-8q3 1 6 1q16 0 43 -51l-3 -23q-2 -15 0 -27q3 -15 9 -36q11 -17 35 -31t44 -14q92 1 191 70q94 66 138 152q-1 2 -1 5q0 4 1 7q5 3 10 11q0 10 6.5 36.5t5.5 41.5q0 12 -19 25
q-16 10 -30 13q-44 8 -75 8q-58 0 -171 -40q-18 -6 -50 -27.5t-48 -26.5q-2 -1 -8 -1t-16 1q-13 17 -20 20q-12 43 -11 58q67 62 147 139q65 72 83 115q-84 1 -271 -71q-14 0 -31.5 11.5t-20.5 24.5v46q22 10 43 17q66 21 132 43q84 24 135 24q29 0 57 -7q19 -5 37.5 -24.5
t25.5 -38.5q7 -20 -12.5 -63t-61.5 -99l3 -3q14 0 42 1h43q49 0 92 -29.5t67 -73.5q25 -50 25 -104q0 -41 -15 -77q-10 -24 -38 -68z" />
    <glyph glyph-name="four" unicode="4" horiz-adv-x="561" 
d="M593 266q-9 3 -21.5 -10.5t-18.5 -13.5q-35 7 -65 10q-71 8 -123 8q-19 -131 -19 -209q0 -11 3 -48q3 -34 0 -48q-9 2 -15.5 -5.5t-13.5 -14.5q-11 -7 -20 0q-45 37 -45 135q0 41 2.5 74.5t10.5 121.5h-135q-84 0 -119 9q-8 2 -19 14.5t-13 21.5q-6 29 -4 42q0 6 9 18
q6 9 13 18q26 38 52 89q55 109 65 202q3 1 7 1q15 0 35 -22l27 -30q-8 -136 -85 -264q2 -2 94 -2q23 3 48 3q20 0 40 -2q11 3 13 16q18 128 67 261q7 22 27 80q4 11 14 11q14 0 38 -25q11 -11 24 -32q-15 -16 -27 -71q-13 -63 -23 -80q-11 -50 -33 -159q21 -7 86 -11
q58 -3 82 -16q36 -19 42 -72z" />
    <glyph glyph-name="five" unicode="5" horiz-adv-x="581" 
d="M593 255q-1 0 -4 -3q3 -13 3 -29q0 -167 -155 -274q-65 -45 -143 -45q-58 0 -118 34q-50 29 -84 65q-23 25 -48 60q-5 7 -16 28q-18 43 -18 88q0 68 45 79q4 -2 12 -9q0 -3 3 -9q5 5 7 5q0 -4 -3 -7q5 -4 14 -4q0 -2 -3 -10.5t-2 -13.5q1 -7 10 -17q-8 -14 -8 -30
q0 -64 84 -123q61 -43 115 -43q88 0 156 89q72 94 72 193q0 72 -50 110q-23 17 -70 28q-42 9 -76 7q-121 -6 -178 -88q-5 -1 -14 -4q133 36 186 57q-10 -1 -21 -2q-77 -23 -187 -71q-9 -6 -13 -5q-13 9 -31 31q-67 153 -62 255q0 7 6 15q-1 -5 -1 11q94 61 286 73q17 2 50 4
q27 1 49 -6q12 -6 38 -60q-11 -8 -32 -26q-57 -3 -170 -12q-95 -9 -150 -47q5 -40 7 -53q6 -30 16 -50q91 72 220 72q36 0 71 -5q87 -12 144 -93q50 -70 63 -165z" />
    <glyph glyph-name="six" unicode="6" horiz-adv-x="576" 
d="M604 226q14 -31 14 -59q0 -92 -117 -162q-106 -63 -213 -63q-26 0 -48 6q-125 33 -190 140q-59 96 -59 232q0 126 64 256q76 153 189 165q33 3 70.5 -22.5t49.5 -57.5q-2 -13 -15 -24q-1 0 -34 11q-14 0 -42 2q-33 7 -97 -74q-80 -101 -93 -223q12 -4 101 48
q-3 3 50.5 14t77.5 11q175 0 257 -123zM112 139q60 -86 163 -86q87 0 172 55q19 12 43.5 39.5t29.5 45.5q2 7 2 19q0 49 -63 87q-57 35 -108 32q-68 -4 -144 -39.5t-124 -85.5l10 -30q6 -19 19 -37z" />
    <glyph glyph-name="seven" unicode="7" horiz-adv-x="433" 
d="M452 290q-8 1 -22 -8t-21 -8q-26 8 -121 26q-16 -111 -16 -218q0 -54 3 -120q-6 1 -20 -8t-20 -9q-21 0 -33 42q-8 29 -8 61v92q0 27 13 168q-32 4 -96 14q-20 22 -20 46q0 7 1.5 20t1.5 20q42 -3 124 -13q17 92 48 235q-20 -5 -118 -24q-88 -17 -134 -44q-15 -9 -29 2
q-18 35 -16 45q-1 7 0 19q55 38 164 65q127 32 162 49q4 2 8 2q13 0 29 -22l26 -35l-32 -144q-19 -89 -27 -154q25 -6 73 -17q44 -11 72 -36q3 -16 8 -46z" />
    <glyph glyph-name="eight" unicode="8" horiz-adv-x="525" 
d="M527 484q0 -59 -53 -95q-18 -12 -104 -49q63 -52 82 -76q32 -41 40 -102q3 -23 3 -34q0 -127 -228 -161q-20 -3 -92 -2q-153 2 -201 80q-30 49 -30 99q0 114 154 199q-41 50 -51 67q-22 37 -19 70q1 7 0 41q-2 41 35 94q32 47 72 74q45 31 110 31q32 0 60 -9q8 -2 27 -2
h29q12 -5 28 -8q40 -7 76 -50q62 -74 62 -167zM458 503q3 41 -13 72q-19 36 -55 47q-15 5 -75 10q-8 1 -19 7l-16 9q-17 6 -39 1q-56 -13 -107 -72q-33 -38 -40 -89q-4 -31 0 -39q26 -52 117 -52q103 0 196 55q50 29 51 51zM424 144q0 5 -7 19t-8 18q-7 25 -48.5 62
t-67.5 45q-11 -3 -29 -5q-56 9 -61 9q-23 0 -18 2q-35 -13 -76 -51q-88 -60 -88 -106q0 -40 24 -55q54 -33 136 -33q19 0 76 5q38 3 82 20q85 32 85 70z" />
    <glyph glyph-name="nine" unicode="9" horiz-adv-x="581" 
d="M609 472q-3 -11 -7 -32q-1 -14 -12 -31q-13 -21 -15 -28q-11 -33 -34 -99q-20 -56 -49 -102q-101 -161 -181 -266q-7 -10 -46 -28q-18 5 -31 22t-13 36q0 5 1 10q-4 5 -4 13q0 19 14 40q11 17 77 102q47 61 69 103q-128 -76 -214 -76q-43 0 -87 15q-26 9 -55 41
t-36.5 60.5t-7.5 58.5q0 124 121 240q109 104 208 118q15 6 43 14q2 0 3.5 -2.5t2.5 -2.5q1 2 2 6q12 1 24 1q70 0 143 -51q30 -21 58 -73q30 -56 26 -89zM516 520q-5 13 -17 30l-29 15q-19 10 -20 20q-43 11 -62 9q-106 -13 -201 -96q-34 -30 -68 -82q-36 -55 -46 -96
q-12 -49 -2 -63q16 -23 62 -23q81 0 181 62q88 55 149 127q14 16 25 32q5 18 9 36q9 26 19 29z" />
    <glyph glyph-name="colon" unicode=":" horiz-adv-x="282" 
d="M264 437q-18 -8 -32 -26q-1 -1 -6 -27q-24 -28 -59 -28q-37 0 -46 40q-16 70 -6 111q25 18 61 18q31 0 55 -22t23 -53q2 -6 10 -13zM115 217q18 -8 32 -26q2 -1 7 -27q23 -28 58 -28q38 0 47 40q15 68 5 111q-25 18 -61 18q-31 0 -54.5 -22t-23.5 -53q-2 -6 -10 -13z" />
    <glyph glyph-name="semicolon" unicode=";" horiz-adv-x="273" 
d="M248 213q-10 -55 -18 -89q-14 -58 -29 -83q-8 -4 -17 -4q-15 0 -33 9q-6 12 -6 23q0 8 5.5 23t5.5 23q-20 1 -56 15q-21 16 -21 46q0 32 30 92q4 7 19.5 20t22.5 13q42 -3 76 -18q15 -7 20 -31q4 -20 1 -39zM264 437q-18 -8 -32 -26q-1 -1 -6 -27q-24 -28 -59 -28
q-37 0 -46 40q-16 70 -6 111q25 18 61 18q31 0 55 -22t23 -53q2 -6 10 -13z" />
    <glyph glyph-name="less" unicode="&#x3c;" horiz-adv-x="248" 
d="M2 338q0 -6 42 -45q16 -15 54 -51q22 -20 42 -35q31 -23 51 -26q34 4 34 63q0 26 -7 40q-30 24 -91 76q21 18 62.5 56.5t46.5 60.5q0 21 -4 63q-7 2 -13 2q-22 0 -48 -25q-19 -19 -42 -39q-13 -11 -40 -28q-88 -42 -87 -112z" />
    <glyph glyph-name="equal" unicode="=" horiz-adv-x="389" 
d="M384 413q-12 -8 -39 -19q-14 -3 -38 -3q-17 0 -40 1l-22 1h-141q-18 0 -55 8q-12 6 -34 38q1 22 6 65l314 1q29 0 39 -39q1 -3 10 -53zM373 243q-18 -24 -35 -26q-16 0 -48 4t-48 4q-11 0 -45 -2q-47 -3 -123 -14q-11 -2 -41 -8q-12 10 -31 33l3 65q23 17 77 24
q29 3 86 9q12 1 109 -2q29 -1 36 -1q27 -3 36 -11q19 -16 24 -75z" />
    <glyph glyph-name="greater" unicode="&#x3e;" horiz-adv-x="238" 
d="M236 338q0 -6 -42 -45q-16 -15 -54 -51q-20 -18 -42 -35q-30 -23 -50 -26q-35 4 -35 63q0 26 8 40q30 24 90 76q-20 18 -62 56t-47 61q1 21 5 63q6 2 13 2q21 0 47 -25q38 -37 42 -39q13 -11 40 -28q88 -42 87 -112z" />
    <glyph glyph-name="question" unicode="?" horiz-adv-x="696" 
d="M738 554q-31 -59 -115 -112l-141 -84q-76 -47 -156 -123q-1 -18 46 -51l74 -52q44 -39 78 -77q-8 -3 -25 -21t-25 -18q-5 0 -12 4q-26 23 -100 78q-144 95 -139 186q1 22 100 99q67 51 126 89q19 6 52 23l102 70q43 29 43 55q0 5 -1 11q-24 31 -99 53q-31 9 -102 20
q-58 9 -68 9h-124q-35 0 -90 -20q-67 -24 -73 -54q23 -36 85 -81q69 -50 92 -77q-1 -11 -9.5 -22t-18.5 -11q-4 0 -8 2q-55 30 -118 77q-77 57 -104 100q-11 17 -11 47q0 12 4 21q49 108 233 108h101q82 0 233 -39q45 -12 107 -65q71 -61 71 -114q0 -16 -8 -31zM679 -53
q15 -15 15 -37q0 -31 -25 -59.5t-56 -36.5q-15 -10 -38 -10q-39 0 -60 32q-5 7 -5 25q0 11 3 42q3 26 2 41q6 13 24 31q5 5 16 7l20 5q8 -7 17 -7q6 0 22 4q13 3 23 2q11 -2 42 -39z" />
    <glyph glyph-name="at" unicode="@" horiz-adv-x="828" 
d="M862 366q-2 -77 -49 -119.5t-124 -42.5q-104 0 -180 66q-55 -71 -145 -71q-103 0 -125 99q0 2 3 34q13 117 86 165q40 26 80 26q51 0 86 -41q2 -1 73 -103q11 -3 10 -3q50 -45 122 -45q52 0 63 29q6 16 6 37q0 23 -21 111q-22 94 -131 144q-77 35 -151 35
q-103 0 -198 -99q-65 -67 -101 -140q-71 -142 -71 -247q0 -119 89 -210q59 -61 173 -61q50 0 122 14q111 22 203 91q24 -1 46 -30q-4 -26 -19 -72q-14 -23 -63 -53q-43 -26 -76 -38q-109 -39 -215 -39q-108 0 -196 50q-71 40 -98 92q-57 109 -57 241q0 267 197 505
q25 24 78 62q73 36 87 34q32 19 102 19q128 0 223 -57q53 -32 98 -93.5t58.5 -120.5t15.5 -97q0 -7 -1 -72zM434 401q-14 12 -31 12q-47 -48 -61 -74q15 -10 32 -10q24 0 43.5 16.5t19.5 39.5q0 8 -3 16z" />
    <glyph glyph-name="A" unicode="A" horiz-adv-x="477" 
d="M511 -33q-10 0 -23.5 -6.5t-18.5 -6.5q-25 0 -39 29q-5 11 -15 31q-36 70 -121 185q-26 -10 -78 -29q-45 -17 -64 -34q-18 -6 -41 -19q-5 -7 -8.5 -34.5t-15.5 -38.5q-15 -4 -27 10q-8 13 -17 26q-2 -1 -57 -36q-30 -19 -57 -46q-8 3 -25 3q-17 17 -15 53q1 11 3 19
q28 46 61 64q21 10 60.5 30.5t57.5 50.5q9 14 35.5 111.5t35.5 139.5q5 44 23 125l13 37q11 22 32 23q9 -14 21 -41q15 -96 34 -151q21 -65 67 -141q8 1 33 9q21 7 32 7q8 0 12 -4q1 -5 12 -24q5 -8 5 -50q-10 -8 -41 -27q52 -76 119 -193q7 -12 7 -72zM247 293
q-16 38 -44 110q-10 -18 -26 -70q-21 -71 -25 -80q40 13 95 40z" />
    <glyph glyph-name="B" unicode="B" horiz-adv-x="587" 
d="M563 220q-6 -32 -31 -88q-23 -52 -38 -72q-3 -4 -22 -28q-8 -10 -49 -63q-40 -41 -84 -35h-14q-21 2 -49 42q-22 32 -34 62l-84 192q-11 24 -12 43q-55 -20 -88 -24q-3 1 -17 6q-7 18 -7 33q0 28 35 65q-32 24 -119 91q-12 9 -19 20q-3 3 -7 30q1 6 8 28q16 54 89 83
q29 12 109 28q54 11 117 11q49 0 102 -7q122 -16 122 -92q0 -43 -24 -85q40 -5 55 -9q36 -8 51 -23t21 -45q10 -47 7 -63zM399 527q-49 27 -143 27q-32 0 -100 -5l-72 -18q-41 -11 -68 -27q95 -74 147 -106q44 14 130 47q63 29 106 82zM508 306q0 18 -2 27q-7 32 -82 32
q-86 0 -208 -58q10 -38 34 -91q14 -30 41 -90q8 -20 26.5 -59.5t41.5 -34.5t62 60q44 62 61 99q26 56 26 115z" />
    <glyph glyph-name="C" unicode="C" horiz-adv-x="446" 
d="M461 197q16 -16 16 -46q0 -54 -38 -104q-19 -24 -88 -41q-47 -11 -101 3q-123 32 -187 152q-52 98 -52 223q0 48 8 87q4 8 11 24q49 23 143 23q52 0 98 -8q-25 40 -70 126q-2 4 -2 9q0 9 10 29t10 26l20 2q11 1 15 -4q30 -44 127 -210l38 -65q21 -37 21 -58q0 -6 -2 -11
q-2 -13 -5 -39q-5 1 -16.5 -2.5t-16.5 -3.5q-13 0 -23 12q-29 35 -50 50q-27 15 -48 27q-49 29 -118 29q-45 0 -80 -14q-1 -13 -1 -26q0 -76 44 -159q62 -116 170 -123q53 -3 80 10.5t52 58.5q13 24 35 23z" />
    <glyph glyph-name="D" unicode="D" horiz-adv-x="663" 
d="M667 342q0 -188 -217 -285q-105 -47 -201 -48q-78 -1 -129 8q-14 5 -40 11q-22 28 -22 66t24 63q7 4 19 -8q16 -16 20 -18q36 -14 91 -14q21 0 35 3q-16 37 -29 68q-12 27 -47 84q-97 123 -151 164q-11 8 -52 35q-32 26 -32 49q0 14 8 36l10 27q79 19 207 19q44 0 94 -2
q412 -19 412 -258zM588 332q-13 146 -336 163q-20 1 -161 0q92 -92 133 -145q66 -86 84 -162q9 -38 -8 -63q74 0 159 50q11 7 52 38q22 17 49 55q30 43 28 64z" />
    <glyph glyph-name="E" unicode="E" horiz-adv-x="589" 
d="M615 158q2 -5 0 -19q-1 -9 -3 -20q0 -51 -36.5 -92.5t-87.5 -59.5q-34 -12 -75 -12q-96 0 -185.5 43.5t-146.5 118.5q-71 94 -83 201q-4 35 -4 65q0 83 30 149q17 37 71 72q49 32 95 43q33 8 53 8q16 0 48 -8q2 1 2 4q3 -3 10 -7q1 1 4 2q85 -25 171 -143
q77 -105 94 -191q6 -10 13 -30q2 -14 -5 -81h-7q-10 -9 -34 -9q-17 0 -51.5 6t-51.5 6h-94q-122 0 -204 6q-6 -6 -5 -10q99 -127 298 -137q44 -2 87 39q36 42 73 84q19 -15 24 -28zM482 311q-14 73 -80 155q-77 97 -152 94q-37 -1 -75 -16q-42 -15 -64 -40q-46 -51 -46 -127
q0 -38 12 -73q21 14 45 14q26 0 78.5 -2.5t43.5 -2.5l163 -1q50 -1 75 -1z" />
    <glyph glyph-name="F" unicode="F" horiz-adv-x="554" 
d="M571 287q-18 -8 -31 -8q-28 0 -48 45l-2 4q-27 61 -71 180l-72 192q-69 -56 -112 -106q-33 -35 -96 -110q-33 -45 -57 -97q-30 -65 -27 -106q1 -11 22 -39q13 -17 23 -29q1 -1 43 -46q28 -30 48 -40q4 -2 22 3q23 6 36 9q93 19 137 19q13 0 23 -1q17 -11 23 -40
q1 -36 -27 -49q-17 -8 -63 -12t-64 -14l85 -101q49 -60 49 -105q0 -21 -10 -39q-1 -1 -24 -12q-12 2 -27 25q-8 13 -25 38q-49 63 -115 132l-12 18q-9 13 -18 14t-32 -7q-27 -10 -34 -11q-3 -3 -9 -8q-36 -16 -71 -32q-47 -20 -72 -23q-23 18 -23 42q0 10 5.5 28t5.5 25
q69 37 147 66q1 2 3 5q-116 122 -118 197q-4 126 166 330q99 119 207 198q38 -12 65 -88q14 -41 42 -122q17 -38 55 -143q1 -4 35 -72q23 -46 23 -79q0 -16 -5 -31z" />
    <glyph glyph-name="G" unicode="G" horiz-adv-x="712" 
d="M749 295q-6 -1 -16 -5q-18 -13 -66 -18q-32 -3 -99 -17q4 -45 3 -70q-2 -54 -82 -121q-64 -53 -130 -82q-79 -35 -166 -24q-55 7 -111 54.5t-74 100.5q-16 48 -16 101q0 113 64 223q60 105 157 173q37 26 77 34l61 6q74 8 126 -58q49 -61 44 -136q-17 -17 -37 -15
q-8 5 -20 21q-4 14 -20 47q-29 42 -87 52q-32 5 -98 -36q-45 -28 -67 -51q-22 -28 -46 -57q-8 -10 -30 -57q-51 -110 -51 -160q0 -29 11 -59q6 -16 37 -39t51 -30q28 -9 62 -9q83 0 159.5 48t101.5 124q-108 -13 -279 -64q-50 -15 -69 -15q-8 0 -14 2q-26 13 -26 57
q0 18 5 31q14 11 26 14l346 82q20 10 18 10q35 0 102 16t101 16q25 0 42 -8q5 -12 10 -81z" />
    <glyph glyph-name="H" unicode="H" horiz-adv-x="584" 
d="M623 -4q-10 3 -26 -7t-20 -10t-7 2q-24 29 -59 121q-48 126 -58 147q-40 -8 -120 -23q-70 -14 -110 -28q13 -35 67 -147q36 -75 36 -111q0 -9 -2 -18q-10 0 -13 3q-12 -21 -28 -21q-18 0 -31 23q-25 43 -55 120q-42 106 -55 134q-39 -8 -157 -57q-17 -7 -41 -6
q-26 30 -26 55q0 41 70 70q18 5 117 36q-6 28 -30 90q-22 58 -28 92q-22 126 -22 150q0 22 4 43q42 -2 61 -35q12 -22 18 -71q6 -55 12 -71q22 -63 66 -173q83 19 236 48q-22 77 -45 170q-16 64 -18 128q-1 31 0 37t12 15q5 1 9 1q34 0 41 -34q23 -83 64 -250q7 -32 17 -46
q3 -5 21 -10l23 -7q9 -5 11.5 -19.5t3.5 -27.5q6 -25 5 -29q-6 -4 -21 -18q5 -28 45 -116q36 -79 36 -124q0 -14 -3 -26z" />
    <glyph glyph-name="I" unicode="I" horiz-adv-x="440" 
d="M492 405l-46 -45q-78 -54 -184 -67q-16 -6 -49 -6q-178 0 -248 116q-28 47 -28 99q0 137 192 195q16 2 42 9q8 5 11 22q8 4 10 9q131 4 249 -91q67 -75 67 -170q0 -41 -16 -71zM340 -176q-5 0 -21 -10.5t-21 -10.5q-13 0 -29 22q-22 30 -49 142q-3 22 -13 79
q-14 74 -14 83q0 40 30 45t48 -43q7 -18 17 -70q17 -88 24 -106q12 -23 26 -64q2 -14 2 -67zM441 496q0 47 -68 98q-65 48 -114 45q-132 -8 -212 -78q-16 -14 -30 -39.5t-14 -45.5q0 -6 2 -11q31 -75 177 -85q24 -2 67 2q7 2 18 5q54 3 139 55q35 21 35 54z" />
    <glyph glyph-name="J" unicode="J" horiz-adv-x="444" 
d="M473 151q3 -14 3 -27q0 -82 -86 -152q-81 -67 -165 -67q-107 0 -207 61q-109 66 -150 172q-9 24 -17 47q2 11 1 31q8 3 15 3q31 0 62 -56q27 -49 68 -75q19 -13 72 -45q58 -32 127 -32q89 0 149 60q7 3 19 15q25 37 25 83q0 45 -27 106q-16 36 -55 103q-98 169 -183 216
q-48 27 -48 69q0 19 9 40q24 5 64 -28q9 -9 49 -47q66 -63 145 -174q92 -130 130 -303z" />
    <glyph glyph-name="K" unicode="K" horiz-adv-x="634" 
d="M680 80q-3 -4 -15 -2q-10 -22 -26 -22q-4 0 -8 1q-86 88 -224 137l-83 29q-42 14 -72 18q-8 2 -42 10q-29 7 -46 7q-25 0 -35 -15q9 -39 70 -150l29 -53q20 -38 20 -60q-2 0 -6 -1h-5q-10 -22 -32 -23q-32 23 -94 146q-9 26 -30 74q-34 -59 -58 -59q-15 0 -28 21
q-9 54 -3 73q7 22 34 57q0 -1 2 -4q3 3 6 12q4 2 9 6q-21 70 -37 135q-18 75 -18 137v87q0 4 3 8t3 5q17 -1 35.5 -14t23 -28t8.5 -78q6 -106 37 -175q10 -2 15 2q46 41 164 114q172 107 209 107q23 0 29 -21q2 -8 2 -13q0 -4 -1 -6q12 -18 12 -31q0 -3 -2 -6
q-10 -8 -27 -19q-144 -67 -254 -143q72 -22 214 -68q118 -41 203 -123q3 -4 18 -72z" />
    <glyph glyph-name="L" unicode="L" horiz-adv-x="460" 
d="M493 95q-98 -36 -195 -74q-58 -23 -220 -91q-48 -20 -78 -25q-29 31 -33 70q-1 12 4 29q3 9 9 29q14 61 23 254q3 63 0 142q-3 81 -14 249q-1 10 5 25q13 -2 31 -19t23 -30q5 -6 11 -18q28 -215 28 -333v-134q0 11 -9 -111q4 -3 7 -2q131 50 346 130q16 -2 47 -8
q6 -27 15 -83z" />
    <glyph glyph-name="M" unicode="M" horiz-adv-x="721" 
d="M974 -105q2 -6 -1 -13q-39 -28 -50 -28q-129 128 -241 303q-51 80 -183 316q-5 -19 -12 -193q-1 -26 -6 -88q-1 -13 -5 -46q2 -33 1 -100q-1 -9 -12 -19q-16 -15 -17 -17q-8 1 -23 4q-38 33 -61 68q-130 200 -228 363q-19 -41 -71 -228q-3 -25 -14 -68q-2 -8 -17.5 -18
t-23.5 -10q-4 0 -6 2q-19 23 -23 31q-6 13 -6 36q0 48 50 199q30 92 65 204q22 3 30 -4q31 -27 68 -91q20 -36 60 -107q32 -55 140 -206q18 40 20 167q2 101 30 298q7 2 13 2q37 0 77 -80q46 -94 185 -319q61 -99 240 -303q6 -6 11 -24q8 -26 10 -31z" />
    <glyph glyph-name="N" unicode="N" horiz-adv-x="749" 
d="M801 -87q-4 -3 -20 -17t-25 -14q-5 0 -9 2q-118 95 -239 201q-62 54 -198 161l-203 160q-4 -10 -4 -64q0 -16 -9 -134q-3 -38 0 -90q0 -4 1.5 -16t1.5 -18q0 -32 -23 -50q-6 -5 -17 -3q-26 15 -36 46q-6 28 -12 57v130q1 10 5 66t5 87q0 17 -2 63l-3 64q3 6 8 18
q24 0 33 -8q117 -99 214 -177q1 -1 157 -120q97 -74 146 -121q17 -11 33 -24q30 -25 35 -31q21 -16 42 -27q-1 39 -30 209q-26 151 -25 251q0 14 -1 40.5t-1 39.5q0 42 14 78q8 2 19 9q12 -2 25 -12q4 -8 11 -21q11 -9 24 -32q0 -14 -3.5 -40.5t-3.5 -40.5q0 -89 3 -133
q4 -56 50 -299q5 -31 18 -112q0 -4 11 -40q9 -29 8 -38z" />
    <glyph glyph-name="O" unicode="O" horiz-adv-x="540" 
d="M531 206q-31 -87 -125 -143q-86 -51 -179 -51q-66 0 -125 26q-119 53 -119 197t119 262q75 74 137 77q46 2 72 -16q2 -1 15 -14q10 -11 15 -11q3 0 6 3q2 -6 22 -17q24 -13 30 -17q95 -71 126 -189q11 -42 11 -74q0 -19 -5 -33zM425 390q-52 80 -153 80q-24 0 -47 -6
q-5 10 -14 18q-68 -41 -121 -136q-37 -67 -37 -142q0 -64 45 -88q34 -19 106 -19q123 0 216 89q38 37 38 94q0 59 -33 110z" />
    <glyph glyph-name="P" unicode="P" horiz-adv-x="458" 
d="M484 431q-5 -66 -72 -127q-53 -48 -129 -81l-106 -46q15 -53 48 -129q11 -26 20 -34.5t35 -21.5q17 -9 25 -23q12 -32 38 -96q-19 -8 -28 -26q-24 -2 -19 -3q-105 92 -159 230q-7 25 -26 76q-30 -4 -86 -10q-8 7 -19 21q-5 8 -3 40q-1 3 -1 7q0 14 16 28t31 13
q0 -1 -1 -3.5t-1 -4.5q11 -2 19 -2q15 0 22 7q-8 61 -18 177q-1 12 6 115q-9 2 -28.5 -12t-31.5 -13q-25 12 -25 45q0 38 36 58q49 27 114 27q48 0 111 -17q31 -8 79 -23q29 -11 52 -22q31 -15 57 -40q18 -17 32 -51.5t12 -58.5zM408 470q0 15 -25 27q-127 61 -216 61
q-16 0 -28 -3q9 -8 9 -13q0 -13 -3 -46l-3 -34v-105q0 -28 16 -89q62 19 123 56q76 46 110 98q16 25 17 48z" />
    <glyph glyph-name="Q" unicode="Q" horiz-adv-x="751" 
d="M805 2q-2 -3 -14.5 -14.5t-12.5 -20.5q-10 -2 -28 -2q-13 6 -40 16q-10 0 -29.5 3.5t-67.5 17.5q-27 8 -124 49q-24 15 -70 36q-6 2 -39 -16q-73 -40 -162 -40q-117 0 -176 93q-53 81 -46 202q4 82 51 174q58 115 144 154q24 3 74 8q21 0 40 -4t30 -6q103 -21 182 -115
q86 -104 86 -197q0 -21 -4 -36q-7 -25 -35 -70q-33 -53 -73 -87q48 -23 177 -55q35 -4 101 -23q9 -5 23 -36zM511 390q-8 58 -61 113q-56 58 -112.5 59t-123.5 4q-103 -92 -130 -276q-5 -34 6 -85q5 -21 17 -49q29 -30 81 -30q56 0 133 33q-111 108 -111 170q0 11 5 20
q38 5 90 -57q63 -74 91 -85q44 32 78 80q43 60 37 103z" />
    <glyph glyph-name="R" unicode="R" horiz-adv-x="580" 
d="M824 -19q-31 -14 -27 -31q-9 -1 -23 1q-201 72 -274 108q-170 83 -267 199q-15 -7 -48 -26q18 -125 89 -251q-6 -7 -19 -7q-5 -31 -26 -31q-40 0 -86 131q-20 56 -39 114q-12 2 -30 -4t-24 -6q-13 0 -15 21h-12q1 26 -10 54q0 14 29 31q21 10 42 21q-3 25 -3 89
q0 53 2 134q-22 -4 -59 -24q-44 -24 -44 -45q0 -12 19 -23q-14 -30 -55 -30q-70 0 -61 81q1 11 20.5 37t30.5 35q113 91 252 84q45 -1 135 -4q186 -7 221 -104q4 -10 0 -19l-14 -38q-9 -22 -22 -33q-41 -36 -99 -84q-35 -23 -103 -69q68 -73 164 -122q54 -28 160 -63
q112 -37 160 -60q7 -4 23 -29q6 -10 13 -37zM432 523q-81 23 -202 23q-26 0 -54 -1q-12 -134 -12 -206q158 63 268 184z" />
    <glyph glyph-name="S" unicode="S" horiz-adv-x="612" 
d="M628 199q-2 -13 -16 -51q-100 -187 -240 -240q-8 0 -23 -2q-15 -6 -33 -6q-91 0 -187 108q-40 45 -40 105q0 31 14 49l6 1q6 1 9 1v-9q20 0 31 -20q8 -19 17 -38q2 1 6 4q-7 -20 2 -32q53 -74 125 -74q82 0 151 88q103 131 102 202q-10 6 -33 6q58 0 -13 -7
q-6 -1 -193 -18q-140 -12 -195 -20q-71 -10 -88 -10q-25 0 -47 6q-12 3 -29 17t-23 26q-16 31 -10 64q17 95 84 207q86 144 178 144q51 0 91 -39q35 -35 49 -88q12 -45 15 -131q-3 0 -17.5 -9.5t-21.5 -9.5q-6 0 -11 5q-7 9 -20 28q1 7 1 15q-4 79 -18 108q-1 8 -4 20
q-11 16 -41 17q-45 2 -89 -53q-23 -29 -60 -98q-25 -48 -56 -133q151 18 482 51q39 3 64 0q28 -4 49 -23q41 -37 41 -106q0 -26 -9 -55z" />
    <glyph glyph-name="T" unicode="T" horiz-adv-x="474" 
d="M499 519q-35 -35 -51 -32q-154 25 -232 32q-8 -8 -8 -30q0 -30 14 -74q4 -13 5 -39.5t5 -39.5q14 -43 41 -103q39 -86 68 -114q17 -22 62 -66q14 -7 39 -27q8 -19 28 -59q-1 -1 -18 -11q-6 -6 -11 -13q-10 -10 -18 -10q-18 0 -70 49q-42 40 -62 66q-64 85 -116 231
q-55 154 -50 251q-68 6 -177 23q-15 2 -29 29q-5 9 -3 39q3 5 9 11q42 -1 375 -30l66 -6q11 -1 13 -1q46 -4 80 -21q10 -5 22 -25z" />
    <glyph glyph-name="U" unicode="U" horiz-adv-x="533" 
d="M570 -69q-8 -1 -20.5 -14.5t-18.5 -12.5q-37 6 -96 30q-74 31 -95 37l-78 23q-28 3 -59 11q-67 17 -101 29q-58 20 -94 45q-52 36 -62 86q-7 37 -5 50q24 140 123 311q5 8 23 8q-2 0 -6 -3q6 -6 30 -19q21 -11 32 -25q-16 -26 -43 -78q-45 -112 -65 -177q-12 -39 -12 -53
q0 -35 36 -47q12 -4 86 -23q15 -5 59 -16q123 -29 267 -80q-19 192 -131 526q-17 51 -65 106q-1 17 -8 49q7 3 20 9q-3 -3 -3 -6q62 -20 104 -102q9 -17 48 -124q4 -11 19 -65q9 -37 35 -128q6 -21 8 -48q2 -3 7 -8q30 -125 50 -201q5 -20 0 -30q16 -31 16 -51q0 -5 -1 -9z
" />
    <glyph glyph-name="V" unicode="V" horiz-adv-x="367" 
d="M310 -102q-3 -2 -15 -2q-10 -17 -32 -17q-6 0 -10 3q-7 6 -32 51q-36 64 -104 194q-87 177 -137 372q1 13 2 38q3 3 7 3q6 0 31 -19q20 -15 32 -48l18 -54q24 -67 56 -145q54 -131 98 -202q8 10 10 40q20 258 26 315q19 168 49 256q15 -11 28 -11l31 -54l-20 -112
q-5 -26 -13 -100q-4 -34 -13 -118q-3 -26 -14 -275q-1 -3 -3 -8q1 -38 5 -107z" />
    <glyph glyph-name="W" unicode="W" horiz-adv-x="849" 
d="M787 -112q-59 -34 -117 -34q-134 0 -257 143q-71 82 -132 209q-15 -64 -65 -129q-58 -75 -117 -75q-51 0 -90 66q-35 60 -34 114q5 165 91 372q13 30 31 41q5 3 17 5q30 -8 57 -43q-47 -68 -78 -182q-28 -103 -32 -198q-2 -37 5 -68q2 -11 15 -17q23 8 35 21
q100 103 105 305q3 0 12 -4q2 1 6 5q13 -1 25 -8q40 -34 50 -87q8 -18 27 -65q39 -105 101 -185q85 -110 173 -116q61 -4 84 0q52 9 94 75q10 16 10 43q0 46 -24 103q-51 122 -113 218q-84 129 -162 163q-8 4 -14.5 16t-12.5 23q2 15 2 25q0 14 -4 16q6 8 17 8q16 0 61 -28
q58 -36 90 -73q46 -53 110 -164q136 -235 136 -339q0 -95 -102 -156z" />
    <glyph glyph-name="X" unicode="X" horiz-adv-x="577" 
d="M619 -26q-3 -5 -5 -13q-3 -1 -18.5 -14.5t-25.5 -13.5q-14 0 -33 16l-29 24q-114 93 -304 245q-50 -98 -75 -202q-4 -17 -4 -30q0 -9 4 -26.5t4 -25.5q-26 -28 -43 -28q-16 0 -29 22q-3 4 -9 33q-13 62 -13 84q0 -5 5 46q2 19 24 71q14 32 49 117q4 11 -24 37
q-16 14 -48 43q-41 39 -71 74q-48 56 -75 110q-5 11 -5 29q0 23 1 31q39 0 72 -41q19 -25 58 -75q20 -25 62 -59q51 -43 65 -57q29 38 57 93q21 42 49 96q26 43 72 144q12 -2 39 -8q3 -6 25 -29q19 -20 19 -34q0 -5 -3 -12q-29 -66 -82 -163l-87 -160l205 -147
q34 -26 143 -116q9 -8 30 -61z" />
    <glyph glyph-name="Y" unicode="Y" horiz-adv-x="291" 
d="M313 457q0 -200 -106 -554q-10 -33 -17 -78q-8 -8 -39 -22q-26 -5 -38 61q-3 15 0 32q11 22 18 42q19 55 57 202q29 112 29 121q0 8 -2 14q-29 -40 -82 -47q-62 -8 -120 75q-48 69 -57 132q-18 123 -17 132q0 2 9 122q3 4 9 4q12 0 29 -17q14 -16 20 -29q5 -8 2 -29
q-1 -9 -3 -28v-75q5 -32 18 -96q12 -54 46 -87q16 -16 44 -16q5 0 9 2q74 42 107 272q4 31 20 172q16 0 31 -8q7 -3 20 -25t13 -30v-242z" />
    <glyph glyph-name="Z" unicode="Z" horiz-adv-x="675" 
d="M723 41q-4 -3 -21 -21q-12 -13 -25 -13q-4 0 -40 9q-74 18 -215 31q-100 9 -205 9h-104q-28 0 -51.5 -1.5t-19.5 -1.5q-53 0 -74 14q-26 18 -26 66q0 12 3 19q73 61 230.5 166t229.5 165q-22 1 -61 -8q-48 -12 -174 -42q-44 -10 -61 -16.5t-24 -6.5q-44 0 -56 36
q-7 21 -8 45q24 13 39 17l235 56q127 28 238 40q32 3 56 -18q20 -23 40 -45q-68 -83 -223 -192q-90 -62 -269 -187q11 -3 44 -3h49q3 0 9.5 -1t9.5 -1h123q158 -16 159 -16q95 -12 154 -36q13 -5 26 -27.5t12 -36.5z" />
    <glyph glyph-name="bracketleft" unicode="[" 
d="M397 678q-9 -5 -20 -10.5t-19 -3.5q-12 6 -35 16q-70 15 -143 15q-59 0 -85 -13q-1 -48 1 -149l2 -95v-147q0 -171 14 -345q1 -1 5 -4q106 13 140 7q18 -3 38 -11q18 -13 22 -87q-25 -21 -39 -22q-18 -3 -104 -15q-63 -9 -103 -9q-16 0 -42 24q-19 226 -24 354
q-2 57 -2 224v275q0 70 5 95q-1 2 -1 12q83 13 163 13q201 0 226 -71q7 -19 1 -53z" />
    <glyph glyph-name="backslash" unicode="\" horiz-adv-x="431" 
d="M36 800q0 -10 -22 -36q4 -39 165 -339q158 -295 157 -324q-1 -20 8 -55t14 -54q3 -12 38 -36q25 -2 41 -2q13 0 21 1q3 13 3 26q0 17 -7.5 48.5t-8.5 46.5q-3 57 -157 364q-158 315 -204 340q-14 8 -48 20z" />
    <glyph glyph-name="bracketright" unicode="]" horiz-adv-x="422" 
d="M3 678q34 -15 39 -14q13 6 35 16q70 15 143 15q59 0 85 -13q1 -48 -1 -149l-2 -95v-147q0 -143 -13 -345q-1 -1 -6 -4q-107 13 -140 7q-16 -3 -38 -11q-18 -13 -21 -87q24 -21 38 -22q18 -3 105 -15q63 -9 103 -9q16 0 41 24q19 226 24 354q2 57 2 224v275q0 70 -5 95
q1 2 1 12q-82 13 -162 13q-117 0 -179 -28q-35 -16 -45 -36.5t-4 -59.5z" />
    <glyph glyph-name="asciicircum" unicode="^" horiz-adv-x="343" 
d="M160 786q-5 0 -36 -34q-12 -12 -41 -43q-45 -49 -48 -74q2 -28 49 -28q22 0 33 6q19 24 61 72q15 -16 45 -49.5t48 -37.5q17 1 51 4q1 5 1 10q0 17 -20 38q-29 30 -31 34q-9 10 -23 32q-33 70 -89 70z" />
    <glyph glyph-name="underscore" unicode="_" horiz-adv-x="623" 
d="M635 30q-9 0 -36 -21q-303 11 -449 4q-13 -1 -41.5 -5.5t-44.5 -4.5q-23 0 -35 9q-7 6 -24 31q-2 25 -2 41q0 13 1 21q68 20 121 17q20 -1 77 0q95 2 123 2q266 0 291 -46q6 -10 19 -48z" />
    <glyph glyph-name="a" unicode="a" horiz-adv-x="477" 
d="M511 17q-10 0 -23.5 -6.5t-18.5 -6.5q-25 0 -39 30l-15 30q-36 70 -121 185q-26 -10 -78 -29q-45 -17 -64 -34q-18 -6 -41 -19q-5 -7 -8.5 -34.5t-15.5 -38.5q-15 -4 -27 10q-8 13 -17 26q-2 -1 -57 -36q-30 -19 -57 -46q-8 3 -25 3q-17 17 -15 53q1 11 3 19q28 46 61 64
q21 10 60.5 30.5t57.5 50.5q9 14 35.5 111.5t35.5 139.5q5 44 23 125q11 34 13 37q11 22 32 23q9 -14 21 -41q15 -96 34 -151q21 -65 67 -141q8 1 33 9q21 7 32 7q8 0 12 -4q1 -5 12 -24q5 -8 5 -50q-10 -8 -41 -27q52 -76 119 -193q7 -12 7 -72zM247 343q-16 38 -44 110
q-10 -18 -26 -70q-21 -71 -25 -80q40 13 95 40z" />
    <glyph glyph-name="b" unicode="b" horiz-adv-x="584" 
d="M563 160q-6 -32 -31 -88q-23 -52 -38 -72q-3 -4 -22 -28q-8 -10 -49 -63q-40 -41 -84 -35h-14q-21 2 -49 42q-22 32 -34 62l-84 192q-11 24 -12 43q-55 -20 -88 -24q-3 1 -17 6q-7 18 -7 33q0 28 35 65q-32 24 -119 91q-12 9 -19 20q-3 3 -7 30q1 6 8 28q16 54 89 83
q29 12 109 28q54 11 117 11q49 0 102 -7q122 -16 122 -92q0 -43 -24 -85q40 -5 55 -9q36 -8 51 -23t21 -45q10 -47 7 -63zM399 467q-49 27 -143 27q-32 0 -100 -5l-72 -18q-41 -11 -68 -27q95 -74 147 -106q44 14 130 47q63 29 106 82zM508 246q0 18 -2 27q-7 32 -82 32
q-86 0 -208 -58q10 -38 34 -91q14 -30 41 -90q8 -20 26.5 -59.5t41.5 -34.5t62 60q44 62 61 99q26 56 26 115z" />
    <glyph glyph-name="c" unicode="c" horiz-adv-x="473" 
d="M461 257q16 -16 16 -46q0 -54 -38 -104q-19 -24 -88 -41q-47 -11 -101 3q-123 32 -187 152q-52 98 -52 223q0 48 8 87q4 8 11 24q49 23 143 23q52 0 98 -8q-25 40 -70 126q-2 4 -2 9q0 9 10 29t10 26l20 2q11 1 15 -4q30 -44 127 -210l38 -65q21 -37 21 -58q0 -6 -2 -11
q-2 -13 -5 -39q-5 1 -16.5 -2.5t-16.5 -3.5q-13 0 -23 12q-29 35 -50 50q-27 15 -48 27q-49 29 -118 29q-45 0 -80 -14q-1 -13 -1 -26q0 -76 44 -159q62 -116 170 -123q53 -3 80 10.5t52 58.5q13 24 35 23z" />
    <glyph glyph-name="d" unicode="d" horiz-adv-x="660" 
d="M667 292q0 -188 -217 -285q-105 -47 -201 -48q-78 -1 -129 8q-14 5 -40 11q-22 28 -22 66t24 63q7 4 19 -8q16 -16 20 -18q36 -14 91 -14q21 0 35 3q-16 37 -29 68q-12 27 -47 84q-97 123 -151 164q-11 8 -52 35q-32 26 -32 49q0 14 8 36l10 27q79 19 207 19q44 0 94 -2
q412 -19 412 -258zM588 282q-13 146 -336 163q-20 1 -161 0q92 -92 133 -145q66 -86 84 -162q9 -38 -8 -63q74 0 159 50q11 7 52 38q22 17 49 55q30 43 28 64z" />
    <glyph glyph-name="e" unicode="e" horiz-adv-x="607" 
d="M615 248q2 -5 0 -19q-1 -9 -3 -20q0 -51 -36.5 -92.5t-87.5 -59.5q-34 -12 -75 -12q-96 0 -185.5 43.5t-146.5 118.5q-71 94 -83 201q-4 35 -4 65q0 83 30 149q17 37 71 72q49 32 95 43q33 8 53 8q16 0 48 -8q2 1 2 4q3 -3 10 -7q1 1 4 2q85 -25 171 -143
q77 -105 94 -191q6 -10 13 -30q2 -14 -5 -81h-7q-10 -9 -34 -9q-17 0 -51.5 6t-51.5 6h-94q-122 0 -204 6q-6 -6 -5 -10q99 -127 298 -137q44 -2 87 39q36 42 73 84q19 -15 24 -28zM482 401q-14 73 -80 155q-77 97 -152 94q-37 -1 -75 -16q-42 -15 -64 -40q-46 -51 -46 -127
q0 -38 12 -73q21 14 45 14q26 0 78.5 -2.5t43.5 -2.5l163 -1q50 -1 75 -1z" />
    <glyph glyph-name="f" unicode="f" horiz-adv-x="554" 
d="M571 287q-18 -8 -31 -8q-28 0 -48 45l-2 4q-27 61 -71 180l-72 192q-69 -56 -112 -106q-33 -35 -96 -110q-33 -45 -57 -97q-30 -65 -27 -106q1 -11 22 -39q13 -17 23 -29q1 -1 43 -46q28 -30 48 -40q4 -2 22 3q23 6 36 9q93 19 137 19q13 0 23 -1q17 -11 23 -40
q1 -36 -27 -49q-17 -8 -63 -12t-64 -14l85 -101q49 -60 49 -105q0 -21 -10 -39q-1 -1 -24 -12q-12 2 -27 25q-8 13 -25 38q-49 63 -115 132l-12 18q-9 13 -18 14t-32 -7q-27 -10 -34 -11q-3 -3 -9 -8q-36 -16 -71 -32q-47 -20 -72 -23q-23 18 -23 42q0 10 5.5 28t5.5 25
q69 37 147 66q1 2 3 5q-116 122 -118 197q-4 126 166 330q99 119 207 198q38 -12 65 -88q14 -41 42 -122q17 -38 55 -143q1 -4 35 -72q23 -46 23 -79q0 -16 -5 -31z" />
    <glyph glyph-name="g" unicode="g" horiz-adv-x="715" 
d="M749 335q-6 -1 -16 -5q-18 -13 -66 -18q-32 -3 -99 -17q4 -45 3 -70q-2 -54 -82 -121q-64 -53 -130 -82q-79 -35 -166 -24q-55 7 -111 54.5t-74 100.5q-16 48 -16 101q0 113 64 223q60 105 157 173q37 26 77 34l61 6q74 8 126 -58q49 -61 44 -136q-17 -17 -37 -15
q-8 5 -20 21q-4 14 -20 47q-29 42 -87 52q-32 5 -98 -36q-45 -28 -67 -51q-22 -28 -46 -57q-8 -10 -30 -57q-51 -110 -51 -160q0 -29 11 -59q6 -16 37 -39t51 -30q28 -9 62 -9q83 0 159.5 48t101.5 124q-108 -13 -279 -64q-50 -15 -69 -15q-8 0 -14 2q-26 13 -26 57
q0 18 5 31q14 11 26 14l346 82q20 10 18 10q35 0 102 16t101 16q25 0 42 -8q5 -12 10 -81z" />
    <glyph glyph-name="h" unicode="h" horiz-adv-x="584" 
d="M623 -44q-10 3 -26 -7t-20 -10t-7 2q-24 29 -59 121q-48 126 -58 147q-40 -8 -120 -23q-70 -14 -110 -28q13 -35 67 -147q36 -75 36 -111q0 -9 -2 -18q-10 0 -13 3q-12 -21 -28 -21q-18 0 -31 23q-25 43 -55 120q-42 106 -55 134q-39 -8 -157 -57q-17 -7 -41 -6
q-26 30 -26 55q0 41 70 70q18 5 117 36q-6 28 -30 90q-22 58 -28 92q-22 126 -22 150q0 22 4 43q42 -2 61 -35q12 -22 18 -71q6 -55 12 -71q22 -63 66 -173q83 19 236 48q-22 77 -45 170q-16 64 -18 128q-1 31 0 37t12 15q5 1 9 1q34 0 41 -34q23 -83 64 -250q7 -32 17 -46
q3 -5 21 -10l23 -7q9 -5 11.5 -19.5t3.5 -27.5q6 -25 5 -29q-6 -4 -21 -18q5 -28 45 -116q36 -79 36 -124q0 -14 -3 -26z" />
    <glyph glyph-name="i" unicode="i" horiz-adv-x="429" 
d="M492 465l-46 -45q-78 -54 -184 -67q-16 -6 -50 -6q-177 0 -247 116q-28 47 -28 99q0 137 192 195q16 2 42 9q8 5 11 22q8 4 10 9q131 4 249 -91q67 -75 67 -170q0 -41 -16 -71zM340 -116q-5 0 -21 -10.5t-21 -10.5q-13 0 -29 22q-22 30 -49 142q-3 22 -13 79
q-14 74 -14 83q0 40 30 45t48 -43q7 -18 17 -70q17 -88 24 -106q12 -23 26 -64q2 -14 2 -67zM441 556q0 47 -68 98q-65 48 -114 45q-132 -8 -212 -78q-16 -14 -30 -39.5t-14 -45.5q0 -6 2 -11q31 -75 177 -85q24 -2 67 2q7 2 18 5q54 3 139 55q35 21 35 54z" />
    <glyph glyph-name="j" unicode="j" horiz-adv-x="444" 
d="M473 211q3 -14 3 -27q0 -82 -86 -152q-81 -67 -165 -67q-107 0 -207 61q-109 66 -150 172q-9 24 -17 47q2 11 1 31q8 3 15 3q31 0 62 -56q27 -49 68 -75q19 -13 72 -45q58 -32 127 -32q89 0 149 60q7 3 19 15q25 37 25 83q0 45 -27 106q-16 36 -55 103q-98 169 -183 216
q-48 27 -48 69q0 19 9 40q24 5 64 -28q9 -9 49 -47q66 -63 145 -174q92 -130 130 -303z" />
    <glyph glyph-name="k" unicode="k" horiz-adv-x="634" 
d="M680 40q-3 -4 -15 -2q-10 -22 -26 -22q-4 0 -8 1q-86 88 -224 137l-83 29q-42 14 -72 18q-8 2 -42 10q-29 7 -46 7q-25 0 -35 -15q9 -39 70 -150l29 -53q20 -38 20 -60q-2 0 -6 -1h-5q-10 -22 -32 -23q-32 23 -94 146q-9 26 -30 74q-34 -59 -58 -59q-15 0 -28 21
q-9 54 -3 73q7 22 34 57q0 -1 2 -4q3 3 6 12q4 2 9 6q-21 70 -37 135q-18 75 -18 137v87q0 4 3 8t3 5q17 -1 35.5 -14t23 -28t8.5 -78q6 -106 37 -175q10 -2 15 2q46 41 164 114q172 107 209 107q23 0 29 -21q2 -8 2 -13q0 -4 -1 -6q12 -18 12 -31q0 -3 -2 -6
q-10 -8 -27 -19q-144 -67 -254 -143q72 -22 214 -68q118 -41 203 -123q3 -4 18 -72z" />
    <glyph glyph-name="l" unicode="l" horiz-adv-x="460" 
d="M493 215q-98 -36 -195 -74q-58 -23 -220 -91q-48 -20 -78 -25q-29 31 -33 70q-1 12 4 29q3 9 9 29q14 61 23 254q3 63 0 142q-3 81 -14 249q-1 10 5 25q13 -2 31 -19t23 -30q5 -6 11 -18q28 -215 28 -333v-134q0 11 -9 -111q4 -3 7 -2q131 50 346 130q16 -2 47 -8
q6 -27 15 -83z" />
    <glyph glyph-name="m" unicode="m" horiz-adv-x="671" 
d="M974 -25q2 -6 -1 -13q-39 -28 -50 -28q-129 128 -241 303q-51 80 -183 316q-5 -19 -12 -193q-1 -26 -6 -88q-1 -13 -5 -46q2 -33 1 -100q-1 -9 -12 -19q-16 -15 -17 -17q-8 1 -23 4q-38 33 -61 68q-130 200 -228 363q-19 -41 -71 -228q-3 -25 -14 -68q-2 -8 -17.5 -18
t-23.5 -10q-4 0 -6 2q-19 23 -23 31q-6 13 -6 36q0 48 50 199q30 92 65 204q22 3 30 -4q31 -27 68 -91q20 -36 60 -107q32 -55 140 -206q18 40 20 167q2 101 30 298q7 2 13 2q37 0 77 -80q46 -94 185 -319q61 -99 240 -303q6 -6 11 -24q8 -26 10 -31z" />
    <glyph glyph-name="n" unicode="n" horiz-adv-x="700" 
d="M761 -17q-4 -3 -20 -17t-25 -14q-5 0 -9 2q-118 95 -239 201q-62 54 -198 161l-203 160q-4 -10 -4 -64q0 -16 -9 -134q-3 -38 0 -90q0 -4 1.5 -16t1.5 -18q0 -32 -23 -50q-6 -5 -17 -3q-26 15 -36 46q-6 28 -12 57v130q1 10 5 66t5 87q0 17 -2 63l-3 64q3 6 8 18
q24 0 33 -8q117 -99 214 -177q1 -1 157 -120q97 -74 146 -121q17 -11 33 -24q30 -25 35 -31q21 -16 42 -27q-1 39 -30 209q-26 151 -25 251q0 14 -1 40.5t-1 39.5q0 42 14 78q8 2 19 9q12 -2 25 -12q4 -8 11 -21q11 -9 24 -32q0 -14 -3.5 -40.5t-3.5 -40.5q0 -89 3 -133
q4 -56 50 -299q5 -31 18 -112q0 -4 11 -40q9 -29 8 -38z" />
    <glyph glyph-name="o" unicode="o" horiz-adv-x="540" 
d="M531 356q-31 -87 -125 -143q-86 -51 -179 -51q-66 0 -125 26q-119 53 -119 197t119 262q75 74 137 77q46 2 72 -16q2 -1 15 -14q10 -11 15 -11q3 0 6 3q2 -6 22 -17q24 -13 30 -17q95 -71 126 -189q11 -42 11 -74q0 -19 -5 -33zM425 540q-52 80 -153 80q-24 0 -47 -6
q-5 10 -14 18q-68 -41 -121 -136q-37 -67 -37 -142q0 -64 45 -88q34 -19 106 -19q123 0 216 89q38 37 38 94q0 59 -33 110z" />
    <glyph glyph-name="p" unicode="p" horiz-adv-x="431" 
d="M454 481q-5 -66 -72 -127q-53 -48 -129 -81l-106 -46q15 -53 48 -129q11 -26 20 -34.5t35 -21.5q17 -9 25 -23q12 -32 38 -96q-19 -8 -28 -26q-24 -2 -19 -3q-105 92 -159 230q-7 25 -26 76q-30 -4 -86 -10q-8 7 -19 21q-5 8 -3 40q-1 3 -1 7q0 14 16 28t31 13
q0 -1 -1 -3.5t-1 -4.5q11 -2 19 -2q15 0 22 7q-8 61 -18 177q-1 12 6 115q-9 2 -28.5 -12t-31.5 -13q-25 12 -25 45q0 38 36 58q49 27 114 27q48 0 111 -17q31 -8 79 -23q29 -11 52 -22q31 -15 57 -40q18 -17 32 -51.5t12 -58.5zM378 520q0 15 -25 27q-127 61 -216 61
q-16 0 -28 -3q9 -8 9 -13q0 -13 -3 -46l-3 -34v-105q0 -28 16 -89q62 19 123 56q76 46 110 98q16 25 17 48z" />
    <glyph glyph-name="q" unicode="q" horiz-adv-x="723" 
d="M775 -58q-2 -3 -14.5 -14.5t-12.5 -20.5q-10 -2 -28 -2q-13 6 -40 16q-10 0 -29.5 3.5t-67.5 17.5q-27 8 -124 49q-24 15 -70 36q-6 2 -39 -16q-73 -40 -162 -40q-117 0 -176 93q-53 81 -46 202q4 82 51 174q58 115 144 154q24 3 74 8q21 0 40 -4t30 -6q103 -21 182 -115
q86 -104 86 -197q0 -21 -4 -36q-7 -25 -35 -70q-33 -53 -73 -87q48 -23 177 -55q35 -4 101 -23q9 -5 23 -36zM481 330q-8 58 -61 113q-56 58 -112.5 59t-123.5 4q-103 -92 -130 -276q-5 -34 6 -85q5 -21 17 -49q29 -30 81 -30q56 0 133 33q-111 108 -111 170q0 11 5 20
q38 5 90 -57q63 -74 91 -85q44 32 78 80q43 60 37 103z" />
    <glyph glyph-name="r" unicode="r" horiz-adv-x="566" 
d="M814 41q-31 -14 -27 -31q-9 -1 -23 1q-201 72 -274 108q-170 83 -267 199q-15 -7 -48 -26q18 -125 89 -251q-6 -7 -19 -7q-5 -31 -26 -31q-40 0 -86 131q-20 56 -39 114q-12 2 -30 -4t-24 -6q-13 0 -15 21h-12q1 26 -10 54q0 14 29 31q21 10 42 21q-3 25 -3 89
q0 53 2 134q-22 -4 -59 -24q-44 -24 -44 -45q0 -12 19 -23q-14 -30 -55 -30q-70 0 -61 81q1 11 20.5 37t30.5 35q113 91 252 84q45 -1 135 -4q186 -7 221 -104q4 -10 0 -19l-14 -38q-9 -22 -22 -33q-41 -36 -99 -84q-35 -23 -103 -69q68 -73 164 -122q54 -28 160 -63
q112 -37 160 -60q7 -4 23 -29q6 -10 13 -37zM422 583q-81 23 -202 23q-26 0 -54 -1q-12 -134 -12 -206q158 63 268 184z" />
    <glyph glyph-name="s" unicode="s" horiz-adv-x="604" 
d="M608 279q-2 -13 -16 -51q-100 -187 -240 -240q-8 0 -23 -2q-15 -6 -33 -6q-91 0 -187 108q-40 45 -40 105q0 31 14 49l6 1q6 1 9 1v-9q20 0 31 -20q8 -19 17 -38q2 1 6 4q-7 -20 2 -32q53 -74 125 -74q82 0 151 88q103 131 102 202q-10 6 -33 6q58 0 -13 -7
q-6 -1 -193 -18q-140 -12 -195 -20q-71 -10 -88 -10q-25 0 -47 6q-12 3 -29 17t-23 26q-16 31 -10 64q17 95 84 207q86 144 178 144q51 0 91 -39q35 -35 49 -88q12 -45 15 -131q-3 0 -17.5 -9.5t-21.5 -9.5q-6 0 -11 5q-7 9 -20 28q1 7 1 15q-4 79 -18 108q-1 8 -4 20
q-11 16 -41 17q-45 2 -89 -53q-23 -29 -60 -98q-25 -48 -56 -133q151 18 482 51q39 3 64 0q28 -4 49 -23q41 -37 41 -106q0 -26 -9 -55z" />
    <glyph glyph-name="t" unicode="t" horiz-adv-x="455" 
d="M459 589q-35 -35 -51 -32q-155 25 -232 32q-8 -8 -8 -30q0 -30 14 -74q4 -13 5 -39.5t5 -39.5q14 -43 41 -103q39 -86 68 -114q17 -22 62 -66q14 -7 39 -27q8 -19 28 -59q-1 -1 -18 -11q-6 -6 -11 -13q-10 -10 -18 -10q-18 0 -70 49q-42 40 -62 66q-64 85 -116 231
q-55 154 -50 251q-68 6 -177 23q-15 2 -29 29q-5 9 -3 39q3 5 9 11q42 -1 375 -30l66 -6q11 -1 13 -1q46 -4 80 -21q10 -5 22 -25z" />
    <glyph glyph-name="u" unicode="u" horiz-adv-x="505" 
d="M540 -109q-8 -1 -20.5 -14.5t-18.5 -12.5q-37 6 -96 30q-74 31 -95 37l-78 23q-28 3 -59 11q-67 17 -101 29q-58 20 -94 45q-52 36 -62 86q-7 37 -5 50q24 140 123 311q5 8 23 8q-2 0 -6 -3q6 -6 30 -19q21 -11 32 -25q-16 -26 -43 -78q-45 -112 -65 -177
q-12 -39 -12 -53q0 -35 36 -47q12 -4 86 -23q15 -5 59 -16q123 -29 267 -80q-19 192 -131 526q-17 51 -65 106q-1 17 -8 49q7 3 20 9q-3 -3 -3 -6q62 -20 104 -102q9 -17 48 -124q4 -11 19 -65q9 -37 35 -128q6 -21 8 -48q2 -3 7 -8q30 -125 50 -201q5 -20 0 -30
q16 -31 16 -51q0 -5 -1 -9z" />
    <glyph glyph-name="v" unicode="v" horiz-adv-x="320" 
d="M270 -72q-3 -2 -15 -2q-10 -17 -32 -17q-6 0 -10 3q-7 6 -32 51q-36 64 -104 194q-87 177 -137 372q1 13 2 38q3 3 7 3q6 0 31 -19q20 -15 32 -48l18 -54q24 -67 56 -145q54 -131 98 -202q8 10 10 40q20 258 26 315q19 168 49 256q15 -11 28 -11l31 -54l-20 -112
q-5 -26 -13 -100q-4 -34 -13 -118q-3 -26 -14 -275q-1 -3 -3 -8q1 -38 5 -107z" />
    <glyph glyph-name="w" unicode="w" horiz-adv-x="833" 
d="M767 -162q-59 -34 -117 -34q-134 0 -257 143q-71 82 -132 209q-15 -64 -65 -129q-58 -75 -117 -75q-51 0 -90 66q-35 60 -34 114q5 165 91 372q13 30 31 41q5 3 17 5q30 -8 57 -43q-47 -68 -78 -182q-28 -103 -32 -198q-2 -37 5 -68q2 -11 15 -17q23 8 35 21
q100 103 105 305q3 0 12 -4q2 1 6 5q13 -1 25 -8q40 -34 50 -87q8 -18 27 -65q39 -105 101 -185q85 -110 173 -116q61 -4 84 0q52 9 94 75q10 16 10 43q0 46 -24 103q-51 122 -113 218q-84 129 -162 163q-8 4 -14.5 16t-12.5 23q2 15 2 25q0 14 -4 16q6 8 17 8q16 0 61 -28
q58 -36 90 -73q46 -53 110 -164q136 -235 136 -339q0 -95 -102 -156z" />
    <glyph glyph-name="x" unicode="x" horiz-adv-x="577" 
d="M619 94q-3 -5 -5 -13q-3 -1 -18.5 -14.5t-25.5 -13.5q-14 0 -33 16l-29 24q-114 93 -304 245q-50 -98 -75 -202q-4 -17 -4 -30q0 -9 4 -26.5t4 -25.5q-26 -28 -43 -28q-16 0 -29 22q-3 4 -9 33q-13 62 -13 84q0 -5 5 46q2 19 24 71q14 32 49 117q4 11 -24 37
q-16 14 -48 43q-41 39 -71 74q-48 56 -75 110q-5 11 -5 29q0 23 1 31q39 0 72 -41q19 -25 58 -75q20 -25 62 -59q51 -43 65 -57q29 38 57 93q21 42 49 96q26 43 72 144q12 -2 39 -8q3 -6 25 -29q19 -20 19 -34q0 -5 -3 -12q-29 -66 -82 -163l-87 -160l205 -147
q34 -26 143 -116q9 -8 30 -61z" />
    <glyph glyph-name="y" unicode="y" horiz-adv-x="291" 
d="M313 347q0 -200 -106 -554q-10 -33 -17 -78q-8 -8 -39 -22q-26 -5 -38 61q-3 15 0 32q11 22 18 42q19 55 57 202q29 112 29 121q0 8 -2 14q-29 -40 -82 -47q-62 -8 -120 75q-48 69 -57 132q-18 123 -17 132q0 2 9 122q3 4 9 4q12 0 29 -17q14 -16 20 -29q5 -8 2 -29
q-1 -9 -3 -28v-75q5 -32 18 -96q12 -54 46 -87q16 -16 44 -16q5 0 9 2q74 42 107 272q4 31 20 172q16 0 31 -8q7 -3 20 -25t13 -30v-242z" />
    <glyph glyph-name="z" unicode="z" horiz-adv-x="687" 
d="M723 101q-4 -3 -21 -21q-12 -13 -25 -13q-4 0 -40 9q-74 18 -215 31q-100 9 -205 9h-104q-28 0 -51.5 -1.5t-19.5 -1.5q-53 0 -74 14q-26 18 -26 66q0 12 3 19q73 61 230.5 166t229.5 165q-22 1 -61 -8q-48 -12 -174 -42q-44 -10 -61 -16.5t-24 -6.5q-44 0 -56 36
q-7 21 -8 45q24 13 39 17l235 56q127 28 238 40q32 3 56 -18q20 -23 40 -45q-68 -83 -223 -192q-90 -62 -269 -187q11 -3 44 -3h49q3 0 9.5 -1t9.5 -1h123q158 -16 159 -16q95 -12 154 -36q13 -5 26 -27.5t12 -36.5z" />
    <glyph glyph-name="braceleft" unicode="{" horiz-adv-x="317" 
d="M274 -196q-50 0 -97 10q-73 16 -107 91q-22 49 -22 106q0 12 1 25.5t12 85.5q10 65 7 101q-1 12 -31 31t-34 32q-2 10 1 61q16 8 49 24q38 21 37 50q-11 18 -37 65q-30 54 -32 108q-3 81 82 155q60 52 125 52q68 0 83 -72q-11 -14 -25 -14q-6 0 -19 2t-20 2
q-66 -4 -136 -92q-17 -21 -18 -57q-1 -15 16 -43l28 -48q31 -65 31 -102q0 -53 -58 -83q37 -53 37 -126q0 -31 -11 -105q-10 -68 -10 -75q0 -58 49 -77q39 -16 99 -6q27 5 47 -7q19 -46 19 -52q0 -18 -25 -31q-21 -11 -41 -11z" />
    <glyph glyph-name="bar" unicode="|" horiz-adv-x="167" 
d="M140 800q0 -10 21 -36q-2 -39 -12 -331l-9 -332q0 -14 4.5 -42.5t4.5 -43.5q0 -24 -9 -35q-5 -7 -30 -24q-25 -2 -41 -2q-13 0 -21 1q-18 63 -17 121q1 121 7 364q11 316 54 340q16 9 48 20z" />
    <glyph glyph-name="braceright" unicode="}" horiz-adv-x="339" 
d="M69 -196q50 0 97 10q70 15 104 85q30 61 25 137l-13 86q-10 68 -7 101q1 12 31.5 31t33.5 32q2 9 -1 61q-16 8 -49 24q-38 21 -37 50q11 18 37 65q30 56 32 108q3 81 -82 155q-60 52 -125 52q-68 0 -83 -72q12 -14 26 -14q6 0 19 2t20 2q66 -4 136 -92q17 -21 18 -57
q1 -13 -17 -43q-26 -43 -27 -48q-32 -57 -32 -102q0 -53 58 -83q-37 -53 -37 -126q0 -31 11 -105q10 -68 10 -75q0 -58 -49 -77q-39 -16 -99 -6q-27 5 -47 -7q-19 -46 -19 -52q0 -18 25 -31q21 -11 41 -11z" />
    <glyph glyph-name="glyph96" 
 />
    <glyph glyph-name="glyph97" 
 />
    <glyph glyph-name="glyph96" 
 />
  </font>
</defs>
</svg>
